<?xml version="1.0" standalone="no"?>
<!DOCTYPE svg PUBLIC "-//W3C//DTD SVG 20010904//EN"
 "http://www.w3.org/TR/2001/REC-SVG-20010904/DTD/svg10.dtd">
<svg version="1.0" xmlns="http://www.w3.org/2000/svg"
 width="400.000000pt" height="400.000000pt" viewBox="0 0 400.000000 400.000000"
 preserveAspectRatio="xMidYMid meet">
<metadata>
Created by potrace 1.11, written by Peter Selinger 2001-2013
</metadata>
<g transform="translate(0.000000,400.000000) scale(0.100000,-0.100000)"
fill="#000000" stroke="none">
<path d="M1385 3381 c-79 -20 -150 -76 -178 -140 -6 -14 -13 -110 -17 -216
l-5 -190 -425 -5 c-385 -5 -428 -7 -462 -23 -20 -10 -44 -27 -53 -37 -44 -49
-44 -45 -45 -1041 0 -826 2 -952 15 -990 20 -57 49 -86 110 -115 l50 -24 1626
0 c1804 0 1687 -4 1748 66 17 18 34 51 38 71 4 21 8 461 8 978 0 996 1 980
-47 1040 -11 14 -39 36 -61 48 -41 21 -52 22 -462 27 l-420 5 -5 195 c-5 175
-7 199 -27 235 -27 50 -57 79 -108 102 -37 17 -86 18 -645 20 -333 1 -618 -2
-635 -6z m1213 -193 c14 -17 14 -30 13 -206 l-1 -152 -617 2 -618 3 0 168 c0
155 2 170 19 183 27 20 1188 21 1204 2z m1002 -574 c7 -17 9 -340 8 -909 -3
-730 -5 -885 -17 -898 -12 -16 -135 -17 -1575 -17 -1734 0 -1592 -6 -1622 66
-22 51 -21 1702 1 1744 8 15 20 30 27 33 7 3 723 6 1591 6 l1577 1 10 -26z"/>
<path d="M460 1790 c0 -68 1 -70 25 -70 23 0 25 4 25 40 l0 40 50 0 50 0 0
-200 0 -200 -35 0 c-32 0 -35 -2 -35 -30 l0 -30 100 0 100 0 0 30 c0 28 -3 30
-35 30 l-35 0 0 200 0 200 49 0 50 0 3 -37 c3 -33 7 -38 31 -41 l27 -3 0 70 0
71 -185 0 -185 0 0 -70z"/>
<path d="M900 1830 c0 -23 4 -30 20 -30 19 0 20 -7 20 -200 0 -193 -1 -200
-20 -200 -16 0 -20 -7 -20 -30 l0 -30 75 0 75 0 0 30 c0 23 -4 30 -20 30 -18
0 -20 7 -20 75 l0 75 48 0 48 0 35 -72 c24 -50 30 -72 22 -75 -7 -3 -13 -18
-13 -34 l0 -29 65 0 65 0 0 30 c0 23 -5 30 -19 30 -13 0 -28 21 -53 78 l-36
77 34 35 c33 35 34 39 34 116 0 79 0 80 -38 117 l-38 37 -132 0 -132 0 0 -30z
m262 -47 c27 -25 25 -119 -4 -150 -18 -19 -32 -23 -85 -23 l-63 0 0 95 0 95
67 0 c48 0 72 -5 85 -17z"/>
<path d="M1460 1831 c0 -16 6 -31 13 -33 11 -2 5 -32 -24 -128 -20 -69 -47
-157 -58 -196 -16 -53 -26 -73 -41 -77 -14 -3 -20 -14 -20 -31 0 -26 1 -26 75
-26 l75 0 0 29 c0 23 -5 30 -23 33 -22 3 -23 4 -9 51 l13 47 88 0 88 0 11 -39
c16 -53 15 -61 -8 -61 -16 0 -20 -7 -20 -30 l0 -31 73 3 c67 3 72 5 75 26 3
17 -2 25 -17 29 -21 5 -23 11 -107 288 -14 50 -29 96 -31 103 -3 6 2 12 11 12
11 0 16 9 16 30 l0 30 -90 0 -90 0 0 -29z m128 -168 l30 -103 -70 0 c-63 0
-69 2 -63 18 3 9 18 59 33 110 14 51 29 89 33 85 4 -5 21 -54 37 -110z"/>
<path d="M1867 1822 l-37 -38 0 -185 0 -185 38 -37 c38 -37 38 -37 123 -37
l85 0 37 38 c31 31 37 45 37 80 0 40 -1 42 -30 42 -26 0 -30 -4 -30 -28 0 -47
-36 -72 -104 -72 -91 0 -95 10 -96 201 0 150 1 156 23 177 34 32 125 31 155
-1 12 -13 22 -35 22 -50 0 -23 4 -27 30 -27 28 0 30 2 30 40 0 32 -7 48 -36
80 l-36 40 -87 0 -87 0 -37 -38z"/>
<path d="M2244 1845 c-9 -23 3 -45 26 -45 19 0 20 -6 20 -199 0 -199 0 -200
-22 -203 -17 -2 -24 -11 -26 -30 l-3 -28 80 0 81 0 0 30 c0 23 -4 30 -20 30
-18 0 -20 7 -20 85 l0 85 30 0 c25 0 35 -9 76 -72 56 -88 61 -98 40 -98 -11 0
-16 -9 -16 -30 l0 -30 75 0 c74 0 75 0 75 25 0 18 -7 28 -24 34 -22 9 -139
180 -139 205 0 6 26 53 57 104 40 63 64 92 77 92 14 0 19 7 19 30 l0 30 -75 0
c-74 0 -75 0 -75 -25 0 -16 7 -28 20 -33 18 -7 16 -13 -33 -90 -44 -70 -56
-82 -79 -82 l-28 0 0 85 c0 78 2 85 20 85 16 0 20 7 20 30 l0 30 -75 0 c-58 0
-77 -4 -81 -15z"/>
<path d="M2710 1830 c0 -23 4 -30 20 -30 19 0 20 -7 20 -200 0 -193 -1 -200
-20 -200 -16 0 -20 -7 -20 -30 l0 -30 160 0 160 0 0 70 c0 68 -1 70 -25 70
-22 0 -25 -4 -25 -40 l0 -40 -80 0 -80 0 0 85 0 85 80 0 80 0 0 30 0 30 -80 0
-80 0 0 85 0 85 80 0 80 0 0 -40 c0 -36 3 -40 25 -40 24 0 25 2 25 70 l0 70
-160 0 -160 0 0 -30z"/>
<path d="M3142 1833 c2 -20 9 -29 26 -31 22 -3 22 -4 22 -202 0 -198 0 -199
-22 -202 -17 -2 -24 -11 -26 -30 l-3 -28 80 0 c80 0 81 0 81 26 0 17 -6 28
-20 31 -18 5 -20 14 -20 79 l0 74 48 0 48 0 32 -72 c19 -42 28 -74 22 -76 -5
-2 -10 -17 -10 -33 l0 -29 65 0 65 0 0 30 c0 23 -4 30 -20 30 -15 0 -28 19
-55 77 l-35 77 35 36 c34 35 35 38 35 116 0 79 0 80 -38 117 l-38 37 -138 0
-137 0 3 -27z m272 -55 c24 -35 21 -116 -6 -145 -18 -19 -32 -23 -85 -23 l-63
0 0 95 0 95 69 0 c61 0 72 -3 85 -22z"/>
</g>
</svg>
