<?xml version="1.0" standalone="no"?>
<!DOCTYPE svg PUBLIC "-//W3C//DTD SVG 20010904//EN"
 "http://www.w3.org/TR/2001/REC-SVG-20010904/DTD/svg10.dtd">
<svg version="1.0" xmlns="http://www.w3.org/2000/svg"
 width="400.000000pt" height="400.000000pt" viewBox="0 0 400.000000 400.000000"
 preserveAspectRatio="xMidYMid meet">
<metadata>
Created by potrace 1.11, written by Peter Selinger 2001-2013
</metadata>
<g transform="translate(0.000000,400.000000) scale(0.100000,-0.100000)"
fill="#000000" stroke="none">
<path d="M1408 3254 c-27 -8 -63 -30 -83 -49 -52 -52 -65 -111 -65 -287 l0
-148 -342 0 c-189 0 -370 -4 -402 -10 -71 -11 -123 -49 -142 -101 -10 -26 -13
-236 -13 -900 l-1 -867 28 -53 c22 -44 37 -59 77 -79 l50 -25 1495 0 c1475 0
1496 0 1534 20 22 11 49 33 60 48 21 28 21 37 24 910 1 485 0 896 -3 914 -8
42 -47 88 -99 116 -40 21 -52 22 -418 25 l-376 4 -4 176 c-3 173 -4 178 -31
225 -18 31 -42 55 -70 70 -42 22 -42 22 -607 24 -474 2 -573 0 -612 -13z
m1142 -173 c5 -11 10 -84 10 -165 l0 -146 -565 0 -565 0 0 149 c0 123 3 152
16 165 14 14 78 16 554 16 523 0 540 -1 550 -19z m900 -497 c11 -11 16 -1627
4 -1657 -3 -9 -20 -19 -37 -22 -18 -3 -661 -4 -1430 -3 l-1399 3 -29 33 -29
32 0 788 c0 631 3 792 13 806 7 10 29 21 47 26 54 13 2847 7 2860 -6z"/>
<path d="M1606 2018 c-3 -13 -6 -148 -6 -300 0 -152 -4 -288 -10 -302 -5 -14
-21 -33 -35 -42 -22 -14 -34 -15 -71 -7 -40 9 -46 8 -59 -11 -41 -57 2 -96
105 -96 74 0 117 17 153 59 44 52 47 87 45 413 l-3 303 -56 3 c-52 3 -57 1
-63 -20z"/>
<path d="M1952 2028 c-18 -18 -17 -717 1 -742 12 -16 29 -18 203 -14 209 5
240 12 302 71 44 42 62 87 62 154 0 88 -44 147 -125 168 l-46 11 37 25 c55 36
77 71 82 132 8 94 -44 163 -145 193 -60 18 -353 20 -371 2z m283 -98 c45 -7
66 -16 83 -35 45 -52 17 -143 -51 -163 -17 -6 -69 -13 -114 -16 l-83 -6 0 115
0 115 53 0 c28 0 79 -4 112 -10z m93 -337 c82 -39 81 -157 -2 -197 -25 -12
-63 -16 -145 -16 l-111 0 0 114 0 115 48 4 c73 6 174 -4 210 -20z"/>
</g>
</svg>
